<svg width="113" height="107" viewBox="0 0 113 107" fill="none" xmlns="http://www.w3.org/2000/svg">
	<ellipse cx="56.5" cy="53.5" rx="56.5" ry="53.5" fill="#003465"/>
	<path d="M55.8957 21.8458L28.7836 44.1194L55.8957 66.4034L83.0077 44.1194L55.8957 21.8458Z" fill="white"/>
	<path d="M55.8958 67.1853C55.7184 67.1703 55.5521 67.0927 55.4266 66.9663L28.3145 44.6823C28.2259 44.6085 28.1547 44.516 28.106 44.4114C28.0573 44.3069 28.0324 44.1928 28.033 44.0775C28.0345 43.9625 28.0604 43.8492 28.1089 43.7449C28.1574 43.6407 28.2275 43.5479 28.3145 43.4727L55.4266 21.1991C55.57 21.0708 55.7556 20.9999 55.948 20.9999C56.1404 20.9999 56.326 21.0708 56.4694 21.1991L83.5814 43.4727C83.6684 43.5479 83.7385 43.6407 83.7871 43.7449C83.8356 43.8492 83.8615 43.9625 83.863 44.0775C83.8636 44.1928 83.8386 44.3069 83.7899 44.4114C83.7413 44.516 83.6701 44.6085 83.5814 44.6823L56.4694 66.9663C56.3946 67.0412 56.3049 67.0994 56.206 67.1371C56.1072 67.1749 56.0015 67.1913 55.8958 67.1853V67.1853ZM30.0142 44.1192L55.8958 65.3918L81.7774 44.1192L55.8958 22.8571L30.0142 44.1192Z" fill="#003465"/>
	<path d="M75.1873 28.1024H36.6047V73.9843H75.1873V28.1024Z" fill="white"/>
	<path d="M64.3842 41.6584L51.2035 52.4928V73.9843H75.1873V41.6584H64.3842Z" fill="white"/>
	<path d="M64.3842 41.6584L51.2035 52.4928V73.9843H75.1873V41.6584H64.3842Z" fill="white"/>
	<path d="M75.2393 74.7663H36.6567C36.4502 74.7636 36.2528 74.6803 36.1067 74.5342C35.9606 74.3881 35.8774 74.1908 35.8747 73.9842V28.1022C35.8801 27.8985 35.9649 27.7048 36.111 27.5626C36.2571 27.4205 36.4529 27.3409 36.6567 27.341H75.2393C75.4467 27.341 75.6457 27.4234 75.7923 27.5701C75.939 27.7167 76.0214 27.9157 76.0214 28.1231V74.005C76.0134 74.208 75.9278 74.4001 75.7823 74.5417C75.6367 74.6834 75.4424 74.7638 75.2393 74.7663V74.7663ZM37.3867 73.223H74.4051V28.9052H37.3867V73.223Z" fill="#003465"/>
	<path d="M68.4091 35.141H56.24C56.0326 35.141 55.8336 35.0586 55.687 34.9119C55.5403 34.7652 55.4579 34.5663 55.4579 34.3589C55.4579 34.1515 55.5403 33.9526 55.687 33.8059C55.8336 33.6592 56.0326 33.5768 56.24 33.5768H68.4091C68.6165 33.5768 68.8155 33.6592 68.9621 33.8059C69.1088 33.9526 69.1912 34.1515 69.1912 34.3589C69.1912 34.5663 69.1088 34.7652 68.9621 34.9119C68.8155 35.0586 68.6165 35.141 68.4091 35.141Z" fill="#003465"/>
	<path d="M52.0689 35.141H43.3826C43.1751 35.141 42.9762 35.0586 42.8295 34.9119C42.6829 34.7652 42.6005 34.5663 42.6005 34.3589C42.6005 34.1515 42.6829 33.9526 42.8295 33.8059C42.9762 33.6592 43.1751 33.5768 43.3826 33.5768H52.0689C52.2763 33.5768 52.4752 33.6592 52.6219 33.8059C52.7685 33.9526 52.8509 34.1515 52.8509 34.3589C52.8509 34.5663 52.7685 34.7652 52.6219 34.9119C52.4752 35.0586 52.2763 35.141 52.0689 35.141Z" fill="#003465"/>
	<path d="M68.4089 40.3549H60.4108C60.2034 40.3549 60.0045 40.2725 59.8578 40.1258C59.7111 39.9791 59.6287 39.7802 59.6287 39.5728C59.6287 39.3654 59.7111 39.1665 59.8578 39.0198C60.0045 38.8731 60.2034 38.7907 60.4108 38.7907H68.4089C68.6163 38.7907 68.8152 38.8731 68.9619 39.0198C69.1086 39.1665 69.191 39.3654 69.191 39.5728C69.191 39.7802 69.1086 39.9791 68.9619 40.1258C68.8152 40.2725 68.6163 40.3549 68.4089 40.3549Z" fill="#003465"/>
	<path d="M56.2399 40.3549H43.3826C43.1751 40.3549 42.9762 40.2725 42.8295 40.1258C42.6829 39.9791 42.6005 39.7802 42.6005 39.5728C42.6005 39.3654 42.6829 39.1665 42.8295 39.0198C42.9762 38.8731 43.1751 38.7907 43.3826 38.7907H56.2399C56.4474 38.7907 56.6463 38.8731 56.793 39.0198C56.9396 39.1665 57.022 39.3654 57.022 39.5728C57.022 39.7802 56.9396 39.9791 56.793 40.1258C56.6463 40.2725 56.4474 40.3549 56.2399 40.3549V40.3549Z" fill="#003465"/>
	<path d="M68.4091 45.5688H54.1544C53.947 45.5688 53.748 45.4863 53.6014 45.3397C53.4547 45.193 53.3723 44.9941 53.3723 44.7867C53.3723 44.5793 53.4547 44.3803 53.6014 44.2337C53.748 44.087 53.947 44.0046 54.1544 44.0046H68.4091C68.6165 44.0046 68.8154 44.087 68.9621 44.2337C69.1088 44.3803 69.1911 44.5793 69.1911 44.7867C69.1911 44.9941 69.1088 45.193 68.9621 45.3397C68.8154 45.4863 68.6165 45.5688 68.4091 45.5688Z" fill="#003465"/>
	<path d="M49.9833 45.5688H43.3826C43.1751 45.5688 42.9762 45.4863 42.8295 45.3397C42.6829 45.193 42.6005 44.9941 42.6005 44.7867C42.6005 44.5793 42.6829 44.3803 42.8295 44.2337C42.9762 44.087 43.1751 44.0046 43.3826 44.0046H49.9833C50.1907 44.0046 50.3897 44.087 50.5363 44.2337C50.683 44.3803 50.7654 44.5793 50.7654 44.7867C50.7654 44.9941 50.683 45.193 50.5363 45.3397C50.3897 45.4863 50.1907 45.5688 49.9833 45.5688V45.5688Z" fill="#003465"/>
	<path d="M68.4091 50.7826H61.4538C61.2464 50.7826 61.0474 50.7002 60.9008 50.5535C60.7541 50.4069 60.6717 50.208 60.6717 50.0006C60.6717 49.7931 60.7541 49.5942 60.9008 49.4475C61.0474 49.3009 61.2464 49.2185 61.4538 49.2185H68.4091C68.6165 49.2185 68.8154 49.3009 68.9621 49.4475C69.1088 49.5942 69.1912 49.7931 69.1912 50.0006C69.1912 50.208 69.1088 50.4069 68.9621 50.5535C68.8154 50.7002 68.6165 50.7826 68.4091 50.7826Z" fill="#003465"/>
	<path d="M57.2827 50.7826H43.3826C43.1751 50.7826 42.9762 50.7002 42.8295 50.5535C42.6829 50.4069 42.6005 50.208 42.6005 50.0006C42.6005 49.7931 42.6829 49.5942 42.8295 49.4475C42.9762 49.3009 43.1751 49.2185 43.3826 49.2185H57.2827C57.4901 49.2185 57.6891 49.3009 57.8357 49.4475C57.9824 49.5942 58.0648 49.7931 58.0648 50.0006C58.0648 50.208 57.9824 50.4069 57.8357 50.5535C57.6891 50.7002 57.4901 50.7826 57.2827 50.7826Z" fill="#003465"/>
	<path d="M62.8512 55.9965H48.9406C48.7332 55.9965 48.5343 55.9141 48.3876 55.7674C48.2409 55.6207 48.1585 55.4218 48.1585 55.2144C48.1585 55.007 48.2409 54.8081 48.3876 54.6614C48.5343 54.5147 48.7332 54.4323 48.9406 54.4323H62.8512C63.0586 54.4323 63.2575 54.5147 63.4042 54.6614C63.5509 54.8081 63.6333 55.007 63.6333 55.2144C63.6333 55.4218 63.5509 55.6207 63.4042 55.7674C63.2575 55.9141 63.0586 55.9965 62.8512 55.9965Z" fill="#003465"/>
	<path d="M28.7836 44.1192V73.9843L46.9487 59.0517L28.7836 44.1192Z" fill="white"/>
	<path d="M64.8429 59.0517L83.008 73.9843V44.1192L64.8429 59.0517Z" fill="white"/>
	<path d="M55.8957 66.4033L46.9487 59.0518L28.7836 73.9843H83.0077L64.8427 59.0518L55.8957 66.4033Z" fill="white"/>
	<path d="M33.9978 52.5031V69.6984L44.4568 61.1059L33.9978 52.5031Z" fill="white"/>
	<path d="M33.9978 52.5031V69.6984L44.4568 61.1059L33.9978 52.5031Z" fill="white"/>
	<path d="M73.1433 60.814L83.0079 68.9268V52.7117L73.1433 60.814Z" fill="white"/>
	<path d="M73.1433 60.814L83.0079 68.9268V52.7117L73.1433 60.814Z" fill="white"/>
	<path d="M28.7837 74.7663C28.6675 74.7647 28.5533 74.7361 28.45 74.6829C28.3165 74.6212 28.2033 74.5227 28.1239 74.399C28.0445 74.2752 28.002 74.1313 28.0016 73.9842V44.1192C28.002 43.9721 28.0445 43.8282 28.1239 43.7045C28.2033 43.5807 28.3165 43.4822 28.45 43.4206C28.5836 43.3553 28.7331 43.3295 28.8808 43.3461C29.0286 43.3627 29.1685 43.4211 29.2843 43.5144L47.4494 58.4469C47.5372 58.5213 47.6078 58.614 47.6562 58.7184C47.7046 58.8228 47.7297 58.9366 47.7297 59.0517C47.7297 59.1668 47.7046 59.2806 47.6562 59.385C47.6078 59.4895 47.5372 59.5821 47.4494 59.6565L29.2843 74.5786C29.1451 74.6988 28.9676 74.7654 28.7837 74.7663V74.7663ZM29.5658 45.7772V72.3262L45.7183 59.0517L29.5658 45.7772Z" fill="#003465"/>
	<path d="M70.0255 63.3061L58.6071 72.691L50.6404 66.1424L41.1094 73.9841H83.008L70.0255 63.3061Z" fill="white"/>
	<path d="M70.0255 63.3061L58.6071 72.691L50.6404 66.1424L41.1094 73.9841H83.008L70.0255 63.3061Z" fill="white"/>
	<path d="M83.0082 74.7663C82.8243 74.7654 82.6468 74.6988 82.5077 74.5786L64.3426 59.6669C64.2547 59.5926 64.1841 59.4999 64.1357 59.3955C64.0873 59.291 64.0622 59.1773 64.0622 59.0622C64.0622 58.947 64.0873 58.8333 64.1357 58.7288C64.1841 58.6244 64.2547 58.5317 64.3426 58.4573L82.5389 43.5144C82.6547 43.4211 82.7946 43.3627 82.9424 43.3461C83.0901 43.3295 83.2396 43.3553 83.3732 43.4206C83.5067 43.4822 83.6199 43.5807 83.6993 43.7045C83.7787 43.8282 83.8212 43.9721 83.8215 44.1192V73.9842C83.8212 74.1313 83.7787 74.2752 83.6993 74.399C83.6199 74.5227 83.5067 74.6212 83.3732 74.6829C83.2605 74.741 83.1349 74.7698 83.0082 74.7663ZM66.0736 59.0517L82.2261 72.3262V45.7772L66.0736 59.0517Z" fill="#003465"/>
	<path d="M83.0078 74.7664H28.7837C28.6218 74.7655 28.464 74.715 28.3317 74.6218C28.1993 74.5286 28.0987 74.3971 28.0433 74.245C27.991 74.0934 27.986 73.9295 28.0288 73.775C28.0716 73.6204 28.1603 73.4825 28.2831 73.3795L46.4482 58.447C46.5916 58.3187 46.7772 58.2478 46.9696 58.2478C47.162 58.2478 47.3476 58.3187 47.491 58.447L55.9375 65.3918L64.3839 58.447C64.5273 58.3187 64.7129 58.2478 64.9053 58.2478C65.0977 58.2478 65.2833 58.3187 65.4267 58.447L83.5918 73.3795C83.7146 73.4825 83.8033 73.6204 83.8461 73.775C83.8889 73.9295 83.8839 74.0934 83.8316 74.245C83.772 74.4113 83.6586 74.5529 83.5094 74.6473C83.3601 74.7418 83.1836 74.7837 83.0078 74.7664V74.7664ZM30.9631 73.2231H80.8284L64.8114 60.0633L56.365 67.0081C56.2216 67.1364 56.036 67.2073 55.8436 67.2073C55.6512 67.2073 55.4656 67.1364 55.3222 67.0081L46.8758 60.0633L30.9631 73.2231Z" fill="#003465"/>
</svg>


